<svg width="178" height="74" viewBox="0 0 178 74" fill="none" xmlns="http://www.w3.org/2000/svg">
<g clip-path="url(#clip0_1_3)">
<path d="M70.6273 57.7076H71.3636C71.292 58.4268 71.0261 58.9862 70.5557 59.3958C70.0853 59.8054 69.4717 60.0151 68.7149 60.0151C67.8558 60.0151 67.1706 59.7254 66.6695 59.1461C66.1683 58.5667 65.9229 57.7775 65.9229 56.7886C65.9229 55.7597 66.1786 54.9506 66.6797 54.3612C67.1808 53.7719 67.8762 53.4722 68.7558 53.4722C69.4717 53.4722 70.0648 53.672 70.525 54.0616C70.9852 54.4511 71.2307 54.9706 71.2716 55.6099H70.5659C70.5046 55.1604 70.3103 54.7908 69.983 54.5211C69.6557 54.2514 69.2467 54.1115 68.766 54.1115C68.1319 54.1115 67.6308 54.3413 67.2524 54.8108C66.874 55.2802 66.6899 55.9196 66.6899 56.7187C66.6899 57.5378 66.874 58.1971 67.2524 58.6766C67.6308 59.1561 68.1319 59.3958 68.7762 59.3958C69.2671 59.3958 69.6864 59.246 70.0137 58.9463C70.3512 58.6466 70.5557 58.237 70.6273 57.7076Z" fill="white"/>
<path d="M75.751 56.7487C75.751 55.7098 76.0067 54.9007 76.518 54.3313C77.0294 53.7619 77.7452 53.4722 78.6759 53.4722C79.6066 53.4722 80.3327 53.7619 80.844 54.3313C81.3554 54.9007 81.611 55.7098 81.611 56.7487C81.611 57.7875 81.3554 58.5867 80.844 59.1561C80.3327 59.7254 79.6066 60.0151 78.6759 60.0151C77.7452 60.0151 77.0294 59.7354 76.518 59.166C76.0067 58.5967 75.751 57.7875 75.751 56.7487ZM76.518 56.7487C76.518 57.5878 76.7021 58.237 77.0805 58.6965C77.4589 59.1561 77.9907 59.3858 78.6759 59.3858C79.3713 59.3858 79.9031 59.1561 80.2815 58.6965C80.6599 58.237 80.844 57.5878 80.844 56.7487C80.844 55.9096 80.6599 55.2503 80.2815 54.7908C79.9031 54.3313 79.3713 54.1015 78.6759 54.1015C77.9907 54.1015 77.4589 54.3313 77.0805 54.7908C76.7021 55.2603 76.518 55.9096 76.518 56.7487Z" fill="white"/>
<path d="M86.4075 59.8553V53.632H87.1234V54.6309C87.3586 54.2514 87.6552 53.9617 88.0131 53.7719C88.3608 53.5821 88.7699 53.4822 89.2403 53.4822C89.6801 53.4822 90.0687 53.5621 90.396 53.7119C90.7232 53.8618 90.9789 54.0815 91.1528 54.3612C91.2448 54.5011 91.3062 54.6809 91.3471 54.8807C91.388 55.0905 91.4084 55.4201 91.4084 55.8896V56.0694V59.8553H90.6516V55.9995C90.6516 55.2703 90.5392 54.7708 90.3039 54.5111C90.0789 54.2514 89.6699 54.1215 89.0869 54.1215C88.4938 54.1215 88.0233 54.3013 87.6756 54.6709C87.3279 55.0405 87.154 55.54 87.154 56.1793V59.8553H86.4075Z" fill="white"/>
<path d="M96.2458 57.9174H96.9821C97.0026 58.3469 97.1662 58.6966 97.4832 58.9663C97.8003 59.236 98.1991 59.3658 98.69 59.3658C99.2218 59.3658 99.6411 59.2659 99.9479 59.0562C100.255 58.8464 100.408 58.5767 100.408 58.2171C100.408 57.7176 99.8457 57.328 98.7105 57.0683L98.6798 57.0583C97.7696 56.8386 97.156 56.6088 96.8492 56.3491C96.5424 56.0894 96.389 55.7298 96.389 55.2703C96.389 54.7308 96.5935 54.3013 96.9924 53.9717C97.4014 53.642 97.923 53.4722 98.5775 53.4722C99.2934 53.4722 99.8661 53.642 100.285 53.9916C100.705 54.3413 100.94 54.8307 100.991 55.4501H100.245C100.214 55.0305 100.05 54.7009 99.7639 54.4611C99.4673 54.2214 99.0787 54.1115 98.5775 54.1115C98.1378 54.1115 97.7901 54.2114 97.5344 54.4012C97.2787 54.601 97.1458 54.8507 97.1458 55.1704C97.1458 55.7198 97.7287 56.1393 98.8843 56.399C99.0377 56.429 99.1502 56.459 99.2218 56.469C99.9479 56.6488 100.459 56.8685 100.735 57.1282C101.022 57.388 101.165 57.7576 101.165 58.2271C101.165 58.7565 100.94 59.186 100.5 59.5157C100.05 59.8453 99.4673 60.0151 98.7412 60.0151C98.0048 60.0151 97.4117 59.8253 96.9617 59.4457C96.5015 59.0662 96.2662 58.5567 96.2458 57.9174Z" fill="white"/>
<path d="M107.005 51.844V53.632H108.181V54.2214H107.005V58.7565C107.005 59.0262 107.035 59.196 107.107 59.2859C107.178 59.3758 107.301 59.4158 107.475 59.4158C107.547 59.4158 107.639 59.4058 107.731 59.3958C107.823 59.3858 107.976 59.3558 108.181 59.3159L108.191 59.8853C108.007 59.9352 107.843 59.9652 107.7 59.9852C107.557 60.0051 107.414 60.0151 107.281 60.0151C106.912 60.0151 106.657 59.9252 106.503 59.7454C106.35 59.5656 106.278 59.236 106.278 58.7565V54.2214H105.409V53.632H106.278V51.844H107.005Z" fill="white"/>
<path d="M112.854 59.8553V53.632H113.57V54.7208C113.754 54.3013 114.01 53.9916 114.337 53.7819C114.665 53.5721 115.063 53.4722 115.544 53.4722H115.626V54.2314H115.534C114.9 54.2314 114.419 54.4112 114.102 54.7808C113.785 55.1504 113.621 55.6998 113.621 56.429V59.8653H112.854V59.8553Z" fill="white"/>
<path d="M125.096 53.632V59.8553H124.38V58.8564C124.135 59.2459 123.838 59.5456 123.49 59.7354C123.143 59.9252 122.723 60.0251 122.243 60.0251C121.527 60.0251 120.985 59.8453 120.617 59.4757C120.259 59.1061 120.075 58.5567 120.075 57.8175V53.632H120.811V57.6477C120.811 58.267 120.934 58.7065 121.169 58.9762C121.404 59.236 121.813 59.3658 122.365 59.3658C122.979 59.3658 123.46 59.186 123.818 58.8164C124.176 58.4468 124.349 57.9474 124.349 57.318V53.632H125.096Z" fill="white"/>
<path d="M134.628 57.7076H135.364C135.292 58.4268 135.026 58.9862 134.556 59.3958C134.085 59.8054 133.472 60.0151 132.715 60.0151C131.856 60.0151 131.171 59.7254 130.67 59.1461C130.169 58.5667 129.923 57.7775 129.923 56.7886C129.923 55.7597 130.179 54.9506 130.68 54.3612C131.181 53.7719 131.876 53.4722 132.756 53.4722C133.472 53.4722 134.055 53.672 134.525 54.0616C134.985 54.4511 135.231 54.9706 135.272 55.6099H134.566C134.505 55.1604 134.31 54.7908 133.983 54.5211C133.656 54.2514 133.247 54.1115 132.766 54.1115C132.132 54.1115 131.631 54.3413 131.253 54.8108C130.874 55.2802 130.69 55.9196 130.69 56.7187C130.69 57.5378 130.874 58.1971 131.253 58.6766C131.631 59.1561 132.132 59.3958 132.776 59.3958C133.267 59.3958 133.687 59.246 134.014 58.9463C134.341 58.6466 134.546 58.237 134.628 57.7076Z" fill="white"/>
<path d="M141.04 51.844V53.632H142.216V54.2214H141.04V58.7565C141.04 59.0262 141.071 59.196 141.142 59.2859C141.214 59.3758 141.336 59.4158 141.51 59.4158C141.582 59.4158 141.674 59.4058 141.766 59.3958C141.858 59.3858 142.011 59.3558 142.216 59.3159L142.226 59.8853C142.042 59.9352 141.878 59.9652 141.735 59.9852C141.592 60.0051 141.449 60.0151 141.316 60.0151C140.948 60.0151 140.692 59.9252 140.539 59.7454C140.385 59.5656 140.314 59.236 140.314 58.7565V54.2214H139.444V53.632H140.314V51.844H141.04Z" fill="white"/>
<path d="M146.961 52.3135V51.2346H147.698V52.3135H146.961ZM146.961 59.8553V53.632H147.698V59.8553H146.961Z" fill="white"/>
<path d="M152.576 56.7487C152.576 55.7098 152.831 54.9007 153.343 54.3313C153.854 53.7619 154.57 53.4722 155.501 53.4722C156.431 53.4722 157.157 53.7619 157.669 54.3313C158.18 54.9007 158.436 55.7098 158.436 56.7487C158.436 57.7875 158.18 58.5867 157.669 59.1561C157.157 59.7254 156.431 60.0151 155.501 60.0151C154.57 60.0151 153.854 59.7354 153.343 59.166C152.831 58.5967 152.576 57.7875 152.576 56.7487ZM153.343 56.7487C153.343 57.5878 153.527 58.237 153.905 58.6965C154.284 59.1561 154.816 59.3858 155.501 59.3858C156.196 59.3858 156.728 59.1561 157.106 58.6965C157.485 58.237 157.669 57.5878 157.669 56.7487C157.669 55.9096 157.485 55.2503 157.106 54.7908C156.728 54.3313 156.196 54.1015 155.501 54.1015C154.816 54.1015 154.284 54.3313 153.905 54.7908C153.527 55.2603 153.343 55.9096 153.343 56.7487Z" fill="white"/>
<path d="M163.232 59.8553V53.632H163.948V54.6309C164.183 54.2514 164.48 53.9617 164.838 53.7719C165.186 53.5821 165.595 53.4822 166.065 53.4822C166.505 53.4822 166.894 53.5621 167.221 53.7119C167.548 53.8618 167.804 54.0815 167.978 54.3612C168.07 54.5011 168.131 54.6809 168.172 54.8807C168.213 55.0905 168.233 55.4201 168.233 55.8896V56.0694V59.8553H167.476V55.9995C167.476 55.2703 167.364 54.7708 167.129 54.5111C166.904 54.2514 166.495 54.1215 165.912 54.1215C165.319 54.1215 164.848 54.3013 164.5 54.6709C164.153 55.0405 163.979 55.54 163.979 56.1793V59.8553H163.232Z" fill="white"/>
<path d="M173.071 57.9174H173.807C173.827 58.3469 173.991 58.6966 174.308 58.9663C174.625 59.236 175.024 59.3658 175.515 59.3658C176.047 59.3658 176.466 59.2659 176.773 59.0562C177.08 58.8464 177.233 58.5767 177.233 58.2171C177.233 57.7176 176.67 57.328 175.535 57.0683L175.505 57.0583C174.594 56.8386 173.981 56.6088 173.674 56.3491C173.367 56.0894 173.214 55.7298 173.214 55.2703C173.214 54.7308 173.418 54.3013 173.827 53.9717C174.236 53.642 174.758 53.4722 175.413 53.4722C176.128 53.4722 176.701 53.642 177.12 53.9916C177.54 54.3413 177.775 54.8307 177.826 55.4501H177.08C177.049 55.0305 176.885 54.7009 176.599 54.4611C176.302 54.2214 175.914 54.1115 175.413 54.1115C174.973 54.1115 174.625 54.2114 174.369 54.4012C174.114 54.601 173.981 54.8507 173.981 55.1704C173.981 55.7198 174.564 56.1393 175.719 56.399C175.873 56.429 175.985 56.459 176.057 56.469C176.783 56.6488 177.294 56.8685 177.57 57.1282C177.857 57.388 178 57.7576 178 58.2271C178 58.7565 177.775 59.186 177.335 59.5157C176.885 59.8453 176.302 60.0151 175.576 60.0151C174.84 60.0151 174.247 59.8253 173.797 59.4457C173.326 59.0662 173.091 58.5567 173.071 57.9174Z" fill="white"/>
<path d="M73.767 14.9838C76.8044 14.9838 79.4122 16.1925 81.0383 18.2503L78.3282 20.5578C77.3566 19.3491 75.5976 18.4201 73.9204 18.4201C70.6887 18.4201 69.0626 20.6477 69.0626 22.8952C69.0626 25.1228 70.6887 27.3504 73.9204 27.3504C76.0476 27.3504 77.3873 26.3315 78.3282 25.1628L81.0383 27.4703C79.3713 29.4881 76.7635 30.7967 73.7465 30.7967C69.8398 30.7967 65.2581 28.1096 65.2581 22.8952C65.2581 17.6809 69.8603 14.9838 73.767 14.9838ZM91.838 30.7967C87.8495 30.7967 83.1758 28.1895 83.1758 22.8952C83.1758 17.601 87.8392 14.9938 91.838 14.9938C95.806 14.9938 100.5 17.601 100.5 22.8952C100.49 28.1895 95.806 30.7967 91.838 30.7967ZM91.838 18.3801C89.5574 18.3801 86.9086 19.8585 86.9086 22.8952C86.9086 25.922 89.5574 27.3904 91.838 27.3904C94.0981 27.3904 96.7367 25.932 96.7367 22.8952C96.7367 19.8585 94.0879 18.3801 91.838 18.3801ZM103.333 24.7333V21.7665H111.862C113.253 21.7665 113.949 20.9374 113.949 20.1182C113.949 19.2891 113.253 18.47 111.862 18.47H103.333V15.4833H112.486C115.83 15.4833 117.477 17.7908 117.477 20.1282C117.477 21.9263 116.454 23.7543 114.419 24.4536L119.083 30.3272H114.501L110.482 24.7532H103.333V24.7333ZM134.924 15.4733V18.46H121.363V15.4733H134.924ZM134.924 21.4069V24.3736H121.363V21.4069H134.924ZM134.924 27.3205V30.3072H121.425V27.3205H134.924ZM73.9204 33.2041C76.9578 33.2041 79.5656 34.4128 81.1917 36.4706L78.4816 38.7781C77.51 37.5694 75.751 36.6404 74.0738 36.6404C70.8421 36.6404 69.216 38.868 69.216 41.1155C69.216 43.3431 70.8421 45.5707 74.0738 45.5707C76.201 45.5707 77.5407 44.5518 78.4816 43.3831L81.1917 45.6906C79.5247 47.7084 76.9169 49.017 73.8999 49.017C69.9932 49.017 65.4116 46.3299 65.4116 41.1155C65.4116 35.9012 70.0137 33.2041 73.9204 33.2041ZM90.5801 33.4838H94.2924L101.625 48.5275H97.7389L92.4209 37.7192L87.1029 48.5275H83.2167L90.5801 33.4838ZM103.64 43.3631V40.3763H111.474C112.691 40.3763 113.294 39.4673 113.294 38.5283C113.294 37.6193 112.691 36.6803 111.474 36.6803H103.64V33.6936H111.862C115.186 33.6936 116.853 36.111 116.853 38.5283C116.853 40.9457 115.186 43.3631 111.862 43.3631H103.64ZM123.327 33.6936V36.6803H119.655V33.6936H123.327ZM119.655 38.9878H123.327V48.5275H119.655V38.9878ZM142.482 33.6936V36.6604H125.536V33.6936H142.482ZM132.173 38.9878H135.845V48.5275H132.173V38.9878ZM151.553 33.4838H155.266L162.598 48.5275H158.712L153.394 37.7192L148.076 48.5275H144.19L151.553 33.4838ZM164.613 33.6936H168.284V48.5275H164.613V33.6936ZM178 45.5408V48.5275H171.168V45.5408H178Z" fill="#D4943C"/>
<path d="M39.3226 48.1879C39.3226 0.6493 40.6828 9.74946 35.2318 0L24.9947 7.88148V51.4144C29.8422 49.926 35.0273 48.8072 39.3226 48.1879Z" fill="#D4943C"/>
<path d="M20.3209 12.4266L12.0167 18.5699V53.4023C12.0167 58.9762 10.3701 56.9384 20.3209 53.0327V12.4266Z" fill="#D4943C"/>
<path d="M53.5483 46.8693C55.3891 46.8693 54.8676 50.0159 54.8676 27.4004C54.8676 25.3026 55.2051 25.9719 53.5483 24.5535C42.1555 14.7141 44.0679 15.6331 44.0679 18.0805L53.5483 26.2716V46.8693Z" fill="#D4943C"/>
<path d="M56.2687 43.3632C56.3187 43.3732 56.3287 43.3932 56.2687 43.3332V43.3632Z" fill="#D4943C"/>
<path d="M58.7947 50.2157C61.3617 48.2778 57.5573 43.7028 56.3096 43.3731C64.0718 50.0659 45.0088 46.4098 24.9947 52.5732C14.1234 55.9395 -2.90445 65.4992 0.419306 74C1.53404 67.2873 9.79741 58.267 32.5831 54.0616C43.0554 52.1336 53.671 52.6231 57.8641 50.7451C56.7493 53.5321 46.7371 50.9849 30.5172 55.9895C21.3743 58.8064 7.05659 66.8477 9.85878 74C10.7997 68.3561 17.7438 60.7743 36.909 57.2381C45.9497 55.5699 55.1232 56.0494 58.4368 54.3213C58.9379 57.2181 51.1756 54.8008 38.5351 58.6965C32.1842 60.6544 21.4664 66.4881 23.5424 71.7724C24.2174 67.6768 29.2695 62.1728 43.1782 59.6056C52.9449 57.8075 62.9162 59.4557 58.7743 54.1315C59.9606 53.3323 60.114 52.1336 58.7947 50.2157Z" fill="#D4943C"/>
</g>
<defs>
<clipPath id="clip0_1_3">
<rect width="178" height="74" fill="white"/>
</clipPath>
</defs>
</svg>
